<svg width="25" height="25" viewBox="0 0 25 25" fill="none" xmlns="http://www.w3.org/2000/svg">
<path d="M21.5593 13.2072C21.402 14.9094 20.7632 16.5316 19.7176 17.884C18.672 19.2364 17.2628 20.263 15.6551 20.8438C14.0473 21.4245 12.3073 21.5354 10.6389 21.1633C8.97037 20.7913 7.44234 19.9518 6.23358 18.743C5.02481 17.5342 4.18529 16.0062 3.81326 14.3377C3.44123 12.6693 3.55207 10.9293 4.13281 9.32153C4.71355 7.71375 5.74018 6.3046 7.09256 5.25899C8.44494 4.21338 10.0671 3.57454 11.7694 3.41724C10.7728 4.7655 10.2932 6.42669 10.4179 8.09865C10.5426 9.77062 11.2632 11.3423 12.4488 12.5278C13.6343 13.7134 15.206 14.434 16.8779 14.5587C18.5499 14.6834 20.2111 14.2038 21.5593 13.2072V13.2072Z" stroke="white" stroke-width="2" stroke-linecap="round" stroke-linejoin="round"/>
</svg>
